# Blender 4.3.2
# www.blender.org
mtllib claw machine.mtl
o Plane
v -3.000000 0.000000 1.000000
v 2.000000 0.000000 1.000000
v -3.000000 0.000000 -2.000000
v 2.000000 0.000000 -2.000000
v -3.000000 2.000000 -2.000000
v -3.000000 2.000000 1.000000
v 2.000000 2.000000 1.000000
v 2.000000 2.000000 -2.000000
v -3.000000 0.000000 -1.700000
v 2.000000 0.000000 -1.700000
v -3.000000 2.000000 -1.700000
v 2.000000 2.000000 -1.700000
v 2.000000 8.000000 -1.700000
v 2.000000 8.000000 -2.000000
v -3.000000 8.000000 -2.000000
v -3.000000 8.000000 -1.700000
v 2.000000 8.400000 -1.700000
v 2.000000 8.400000 -2.000000
v -3.000000 8.400000 -2.000000
v -3.000000 8.400000 -1.700000
v 2.000000 8.000000 1.000000
v -3.000000 8.000000 1.000000
v 2.000000 8.400000 1.000000
v -3.000000 8.400000 1.000000
v -3.000000 8.000000 1.000000
v -1.333333 0.000000 1.000000
v 0.333333 0.000000 1.000000
v 0.333333 0.000000 -2.000000
v -1.333333 0.000000 -2.000000
v -2.933333 2.000000 1.000000
v 1.933333 2.000000 1.000000
v 0.333333 2.000000 -2.000000
v -1.333333 2.000000 -2.000000
v 1.933333 2.000000 -1.700000
v -2.933333 2.000000 -1.700000
v 0.333333 8.000000 -2.000000
v -1.333333 8.000000 -2.000000
v 0.333333 8.000000 -1.700000
v -1.333333 8.000000 -1.700000
v 0.333333 8.400000 -2.000000
v -1.333333 8.400000 -2.000000
v 0.333333 8.400000 -1.700000
v -1.333333 8.400000 -1.700000
v 0.333333 8.000000 1.000000
v -1.333333 8.000000 1.000000
v 0.333333 8.400000 1.000000
v -1.333333 8.400000 1.000000
v -3.000000 0.000000 0.932500
v -3.000000 2.000000 0.932500
v 2.000000 0.000000 0.932500
v 2.000000 2.000000 0.932500
v -2.933333 2.000000 0.932500
v 1.933333 2.000000 0.932500
v 1.933333 2.000000 -1.700000
v -2.933333 2.000000 -1.700000
v -2.933333 2.000000 0.932500
v 1.933333 2.000000 0.932500
v 1.933333 2.000000 -1.700000
v -2.933333 2.000000 -1.700000
v -2.933333 2.000000 0.932500
v 1.933333 2.000000 0.932500
v -1.200000 2.000000 -1.700000
v -2.933333 2.000000 -0.383750
v 1.933333 2.000000 -0.383750
v -1.200000 2.000000 0.932500
v -1.200000 2.000000 -0.383750
v -1.200000 1.000000 0.932500
v -2.933333 1.000000 0.932500
v -2.933333 1.000000 -0.383750
v -1.200000 1.000000 -0.383750
v -3.000000 2.200000 0.932500
v -3.000000 2.200000 1.000000
v 1.933333 2.200000 1.000000
v 2.000000 2.200000 1.000000
v 2.000000 2.200000 0.932500
v 2.000000 2.200000 -1.700000
v -2.933333 2.200000 -1.700000
v -3.000000 2.200000 -1.700000
v -2.933333 2.200000 1.000000
v 1.933333 2.200000 -1.700000
v -2.933333 2.200000 0.932500
v 1.933333 2.200000 0.932500
v -3.000000 8.000000 0.932500
v -3.000000 8.000000 1.000000
v 1.933333 8.000000 1.000000
v 2.000000 8.000000 1.000000
v -2.933333 8.000000 1.000000
v 2.000000 8.000000 0.932500
v -2.933333 8.000000 0.932500
v 1.933333 8.000000 0.932500
v -3.000000 -2.000000 0.932500
v -3.000000 -2.000000 1.000000
v 0.333333 -2.000000 1.000000
v 2.000000 -2.000000 1.000000
v 2.000000 -2.000000 -1.700000
v 2.000000 -2.000000 -2.000000
v -1.333333 -2.000000 -2.000000
v -3.000000 -2.000000 -2.000000
v -3.000000 -2.000000 -1.700000
v 2.000000 -2.000000 0.932500
v 0.333333 -2.000000 -1.700000
v -1.333333 -2.000000 1.000000
v 0.333333 -2.000000 -2.000000
v -1.333333 -2.000000 -1.700000
v -1.333333 -2.000000 0.932500
v 0.333333 -2.000000 0.932500
vn -0.0000 -0.0000 -1.0000
vn 1.0000 -0.0000 -0.0000
vn -1.0000 -0.0000 -0.0000
vn -0.0000 -0.0000 1.0000
vn -0.0000 1.0000 -0.0000
vn -0.0000 -1.0000 -0.0000
vt 0.008747 0.351087
vt 0.097898 0.030144
vt 0.097898 0.351087
vt 0.293695 0.458069
vt 0.309742 0.351087
vt 0.309742 0.458069
vt 0.471662 0.458069
vt 0.475272 0.351087
vt 0.475272 0.458069
vt 0.008747 0.458069
vt 0.097898 0.458069
vt 0.929227 0.276201
vt 0.822246 0.272634
vt 0.929227 0.187049
vt 0.616086 0.458069
vt 0.632134 0.351087
vt 0.632134 0.458069
vt 0.450556 0.351087
vt 0.450556 0.458069
vt 0.822246 0.012313
vt 0.811548 0.008747
vt 0.822246 0.008747
vt 0.616086 0.030144
vt 0.632134 0.008747
vt 0.632134 0.030144
vt 0.012313 0.796507
vt 0.008747 0.475563
vt 0.097898 0.475563
vt 0.616086 0.351087
vt 0.293695 0.351087
vt 0.309742 0.030144
vt 0.438120 0.475563
vt 0.454167 0.564714
vt 0.438120 0.564714
vt 0.293695 0.030144
vt 0.309742 0.008747
vt 0.438120 0.743016
vt 0.293695 0.653865
vt 0.438120 0.653865
vt 0.008747 0.030144
vt 0.097898 0.008747
vt 0.649628 0.452004
vt 0.794053 0.276201
vt 0.649628 0.187049
vt 0.794053 0.187049
vt 0.471662 0.008747
vt 0.616086 0.008747
vt 0.454167 0.030144
vt 0.832944 0.564714
vt 0.811548 0.475563
vt 0.832944 0.475563
vt 0.811548 0.743017
vt 0.832944 0.653865
vt 0.832944 0.743017
vt 0.811548 0.653865
vt 0.794053 0.097898
vt 0.649628 0.008747
vt 0.794053 0.008747
vt 0.649628 0.097898
vt 0.187049 0.030144
vt 0.276201 0.008747
vt 0.276201 0.030144
vt 0.187049 0.008747
vt 0.293695 0.475563
vt 0.293695 0.564714
vt 0.454167 0.743016
vt 0.454167 0.653865
vt 0.272634 0.796507
vt 0.276201 0.475563
vt 0.276201 0.796507
vt 0.187049 0.475563
vt 0.660326 0.434509
vt 0.649628 0.293695
vt 0.660326 0.293695
vt 0.920846 0.475563
vt 0.991253 0.643167
vt 0.920846 0.643167
vt 0.929227 0.008747
vt 0.929227 0.097898
vt 0.187049 0.458069
vt 0.276201 0.351087
vt 0.276201 0.458069
vt 0.187049 0.351087
vt 0.454167 0.340389
vt 0.454167 0.351087
vt 0.822246 0.276201
vt 0.811548 0.272634
vt 0.450556 0.340389
vt 0.454167 0.458069
vt 0.667123 0.452004
vt 0.706014 0.364102
vt 0.706014 0.293695
vt 0.706014 0.434509
vt 0.991253 0.735884
vt 0.920846 0.735884
vt 0.435666 0.760511
vt 0.489156 0.830918
vt 0.435666 0.830918
vt 0.850439 0.475563
vt 0.850439 0.643167
vt 0.723508 0.293695
vt 0.793915 0.386412
vt 0.723508 0.386412
vt 0.364680 0.760511
vt 0.418171 0.853228
vt 0.364680 0.853228
vt 0.293695 0.760511
vt 0.347186 0.853228
vt 0.293695 0.853228
vt 0.506651 0.760511
vt 0.560142 0.830918
vt 0.506651 0.830918
vt 0.653239 0.475563
vt 0.794053 0.479129
vt 0.653239 0.479129
vt 0.653239 0.739451
vt 0.794053 0.743017
vt 0.653239 0.743017
vt 0.649628 0.479129
vt 0.649628 0.739451
vt 0.928838 0.570183
vt 0.927827 0.529426
vt 0.927827 0.570183
vt 0.908874 0.570169
vt 0.907446 0.511863
vt 0.907446 0.570169
vt 0.723508 0.414605
vt 0.727074 0.403907
vt 0.727074 0.414605
vt 0.616086 0.340389
vt 0.957420 0.269068
vt 0.946722 0.008747
vt 0.957420 0.008747
vt 0.688519 0.434509
vt 0.677821 0.293695
vt 0.688519 0.293695
vt 0.811548 0.012313
vt 0.471662 0.351087
vt 0.475272 0.340389
vt 0.723508 0.442798
vt 0.727074 0.432100
vt 0.727074 0.442798
vt 0.008747 0.796507
vt 0.454167 0.475563
vt 0.293695 0.008747
vt 0.293695 0.743016
vt 0.008747 0.008747
vt 0.649628 0.276201
vt 0.471662 0.030144
vt 0.454167 0.008747
vt 0.811548 0.564714
vt 0.649628 0.434509
vt 0.991253 0.475563
vt 0.811548 0.276201
vt 0.309742 0.340389
vt 0.489156 0.760511
vt 0.793915 0.293695
vt 0.418171 0.760511
vt 0.347186 0.760511
vt 0.560142 0.760511
vt 0.794053 0.475563
vt 0.794053 0.739451
vt 0.906768 0.570474
vt 0.905325 0.511557
vt 0.905325 0.570474
vt 0.915136 0.570169
vt 0.913690 0.511863
vt 0.913690 0.570169
vt 0.723508 0.403907
vt 0.946722 0.269068
vt 0.677821 0.434509
vt 0.471662 0.340389
vt 0.723508 0.432100
vt 0.649628 0.743017
vt 0.649628 0.475563
vt 0.913078 0.570474
vt 0.911617 0.511557
vt 0.911617 0.570474
vt 0.904677 0.570474
vt 0.903234 0.511557
vt 0.903234 0.570474
vt 0.910969 0.570474
vt 0.909508 0.511557
vt 0.909508 0.570474
vt 0.902665 0.570169
vt 0.901237 0.511863
vt 0.901237 0.570169
vt 0.917297 0.570474
vt 0.917297 0.511557
vt 0.915835 0.511557
vt 0.908874 0.511863
vt 0.906768 0.511557
vt 0.915187 0.570474
vt 0.915187 0.511557
vt 0.913726 0.511557
vt 0.913078 0.511557
vt 0.904677 0.511557
vt 0.910969 0.511557
vt 0.902665 0.511863
vt 0.632134 0.653865
vt 0.616086 0.743016
vt 0.616086 0.653865
vt 0.475272 0.743016
vt 0.475272 0.653865
vt 0.616086 0.475563
vt 0.475272 0.564714
vt 0.475272 0.475563
vt 0.616086 0.564714
vt 0.632134 0.475563
vt 0.471662 0.653865
vt 0.471662 0.564714
vt 0.471662 0.475563
vt 0.471662 0.743016
vt 0.632134 0.743016
vt 0.632134 0.564714
s 0
usemtl Material.002
f 5/1/1 37/2/1 33/3/1
f 4/4/2 12/5/2 10/6/2
f 1/7/3 49/8/3 48/9/3
f 3/10/1 33/3/1 29/11/1
f 2/12/4 31/13/4 27/14/4
f 9/15/3 5/16/3 3/17/3
f 10/6/2 51/18/2 50/19/2
f 30/20/4 72/21/4 6/22/4
f 16/23/3 19/24/3 15/25/3
f 54/26/4 13/27/4 38/28/4
f 11/29/3 15/25/3 5/16/3
f 8/30/2 13/31/2 12/5/2
f 17/32/5 40/33/5 42/34/5
f 14/35/2 17/36/2 13/31/2
f 20/37/5 47/38/5 43/39/5
f 15/40/1 41/41/1 37/2/1
f 24/42/5 22/42/5 25/42/5
f 13/43/6 44/44/6 38/45/6
f 16/23/3 24/46/3 20/47/3
f 17/36/2 21/48/2 13/31/2
f 45/49/4 24/50/4 25/51/4
f 23/52/4 44/53/4 21/54/4
f 46/55/4 45/49/4 44/53/4
f 39/56/6 22/57/6 16/58/6
f 38/45/6 45/59/6 39/56/6
f 36/60/1 18/61/1 14/62/1
f 37/2/1 40/63/1 36/60/1
f 42/34/5 23/64/5 17/32/5
f 43/39/5 46/65/5 42/34/5
f 43/39/5 19/66/5 20/37/5
f 42/34/5 41/67/5 43/39/5
f 55/68/4 16/69/4 11/70/4
f 54/26/4 39/71/4 55/68/4
f 55/72/2 81/73/2 56/74/2
f 64/75/5 62/76/5 66/77/5
f 1/78/4 30/20/4 6/22/4
f 27/14/4 30/20/4 26/79/4
f 28/80/1 8/81/1 4/82/1
f 29/11/1 32/83/1 28/80/1
f 32/83/1 14/62/1 8/81/1
f 33/3/1 36/60/1 32/83/1
f 51/18/2 74/84/2 7/85/2
f 7/86/4 73/87/4 31/13/4
f 26/79/4 93/14/4 27/14/4
f 50/19/2 95/6/2 10/6/2
f 9/15/3 91/9/3 48/9/3
f 12/5/2 75/88/2 51/18/2
f 50/19/2 7/85/2 2/89/2
f 48/9/3 11/29/3 9/15/3
f 59/90/5 54/90/5 55/90/5
f 60/90/5 55/90/5 56/90/5
f 58/90/5 57/90/5 54/90/5
f 61/90/5 56/90/5 57/90/5
f 62/90/5 58/90/5 59/90/5
f 63/90/5 59/90/5 60/90/5
f 64/91/6 53/92/6 58/93/6
f 65/90/5 60/90/5 61/90/5
f 66/77/5 35/94/5 63/95/5
f 52/96/2 69/97/2 63/98/2
f 53/99/5 66/77/5 65/100/5
f 67/101/5 69/102/5 68/103/5
f 65/104/1 68/105/1 52/106/1
f 63/107/4 70/108/4 66/109/4
f 66/110/3 67/111/3 65/112/3
f 75/113/5 80/114/5 82/115/5
f 81/116/5 78/117/5 71/118/5
f 73/119/5 81/116/5 79/120/5
f 81/121/2 87/122/2 79/123/2
f 79/124/4 84/125/4 72/126/4
f 54/127/1 76/128/1 12/129/1
f 49/8/3 78/130/3 11/29/3
f 56/131/1 82/132/1 57/133/1
f 57/134/3 80/135/3 54/136/3
f 31/13/4 79/137/4 30/20/4
f 6/138/3 71/139/3 49/8/3
f 11/140/1 77/141/1 55/142/1
f 10/6/2 96/4/2 4/4/2
f 5/1/1 15/40/1 37/2/1
f 4/4/2 8/30/2 12/5/2
f 1/7/3 6/138/3 49/8/3
f 3/10/1 5/1/1 33/3/1
f 2/12/4 7/86/4 31/13/4
f 9/15/3 11/29/3 5/16/3
f 10/6/2 12/5/2 51/18/2
f 30/20/4 79/137/4 72/21/4
f 3/17/3 99/15/3 9/15/3
f 16/23/3 20/47/3 19/24/3
f 54/26/4 12/143/4 13/27/4
f 11/29/3 16/23/3 15/25/3
f 8/30/2 14/35/2 13/31/2
f 17/32/5 18/144/5 40/33/5
f 14/35/2 18/145/2 17/36/2
f 20/37/5 24/146/5 47/38/5
f 15/40/1 19/147/1 41/41/1
f 13/43/6 21/148/6 44/44/6
f 16/23/3 22/149/3 24/46/3
f 17/36/2 23/150/2 21/48/2
f 45/49/4 47/151/4 24/50/4
f 25/51/5 22/51/5 45/49/5
f 23/52/4 46/55/4 44/53/4
f 46/55/4 47/151/4 45/49/4
f 39/56/6 45/59/6 22/57/6
f 38/45/6 44/44/6 45/59/6
f 36/60/1 40/63/1 18/61/1
f 37/2/1 41/41/1 40/63/1
f 42/34/5 46/65/5 23/64/5
f 43/39/5 47/38/5 46/65/5
f 43/39/5 41/67/5 19/66/5
f 42/34/5 40/33/5 41/67/5
f 55/68/4 39/71/4 16/69/4
f 54/26/4 38/28/4 39/71/4
f 1/78/4 102/79/4 26/79/4
f 28/80/1 97/11/1 29/11/1
f 55/72/2 77/152/2 81/73/2
f 64/75/5 34/153/5 62/76/5
f 1/78/4 26/79/4 30/20/4
f 27/14/4 31/13/4 30/20/4
f 28/80/1 32/83/1 8/81/1
f 29/11/1 33/3/1 32/83/1
f 32/83/1 36/60/1 14/62/1
f 33/3/1 37/2/1 36/60/1
f 27/14/4 94/12/4 2/12/4
f 2/89/2 100/19/2 50/19/2
f 51/18/2 75/88/2 74/84/2
f 7/86/4 74/154/4 73/87/4
f 4/82/1 103/80/1 28/80/1
f 48/9/3 92/7/3 1/7/3
f 29/11/1 98/10/1 3/10/1
f 12/5/2 76/155/2 75/88/2
f 50/19/2 51/18/2 7/85/2
f 48/9/3 49/8/3 11/29/3
f 59/90/5 58/90/5 54/90/5
f 60/90/5 59/90/5 55/90/5
f 58/90/5 61/90/5 57/90/5
f 61/90/5 60/90/5 56/90/5
f 59/90/5 35/90/5 62/90/5
f 62/90/5 34/90/5 58/90/5
f 60/90/5 52/90/5 63/90/5
f 63/90/5 35/90/5 59/90/5
f 58/93/5 34/93/5 64/91/5
f 53/92/5 61/92/5 58/93/5
f 61/90/5 53/90/5 65/90/5
f 65/90/5 52/90/5 60/90/5
f 66/77/5 62/76/5 35/94/5
f 52/96/2 68/156/2 69/97/2
f 53/99/5 64/75/5 66/77/5
f 67/101/5 70/157/5 69/102/5
f 65/104/1 67/158/1 68/105/1
f 63/107/4 69/159/4 70/108/4
f 66/110/3 70/160/3 67/111/3
f 75/113/5 76/161/5 80/114/5
f 81/116/5 77/162/5 78/117/5
f 73/119/5 82/115/5 81/116/5
f 82/163/1 88/164/1 75/165/1
f 75/166/2 86/167/2 74/168/2
f 54/127/1 80/169/1 76/128/1
f 49/8/3 71/139/3 78/130/3
f 56/131/1 81/170/1 82/132/1
f 57/134/3 82/171/3 80/135/3
f 31/13/4 73/87/4 79/137/4
f 6/138/3 72/172/3 71/139/3
f 11/140/1 78/173/1 77/141/1
f 87/120/5 83/118/5 84/174/5
f 86/175/5 90/115/5 85/119/5
f 87/120/5 89/116/5 83/118/5
f 86/175/5 88/113/5 90/115/5
f 72/176/3 83/177/3 71/178/3
f 71/179/1 89/180/1 81/181/1
f 73/182/3 90/183/3 82/184/3
f 74/185/4 85/186/4 73/187/4
f 81/188/2 89/189/2 87/190/2
f 79/124/4 87/191/4 84/125/4
f 82/163/1 90/192/1 88/164/1
f 75/193/2 88/194/2 86/195/2
f 72/176/3 84/196/3 83/177/3
f 71/179/1 83/197/1 89/180/1
f 73/182/3 85/198/3 90/183/3
f 74/185/4 86/199/4 85/186/4
f 103/200/6 95/201/6 101/202/6
f 101/202/6 100/203/6 106/204/6
f 99/205/6 105/206/6 91/207/6
f 104/208/6 106/204/6 105/206/6
f 98/209/6 104/208/6 99/205/6
f 104/208/6 103/200/6 101/202/6
f 105/206/6 93/210/6 102/211/6
f 91/207/6 102/211/6 92/212/6
f 106/204/6 94/213/6 93/210/6
f 103/200/6 96/214/6 95/201/6
f 101/202/6 95/201/6 100/203/6
f 99/205/6 104/208/6 105/206/6
f 104/208/6 101/202/6 106/204/6
f 98/209/6 97/215/6 104/208/6
f 104/208/6 97/215/6 103/200/6
f 105/206/6 106/204/6 93/210/6
f 91/207/6 105/206/6 102/211/6
f 106/204/6 100/203/6 94/213/6
f 26/79/4 102/79/4 93/14/4
f 50/19/2 100/19/2 95/6/2
f 9/15/3 99/15/3 91/9/3
f 10/6/2 95/6/2 96/4/2
f 3/17/3 98/17/3 99/15/3
f 1/78/4 92/78/4 102/79/4
f 28/80/1 103/80/1 97/11/1
f 27/14/4 93/14/4 94/12/4
f 2/89/2 94/89/2 100/19/2
f 4/82/1 96/82/1 103/80/1
f 48/9/3 91/9/3 92/7/3
f 29/11/1 97/11/1 98/10/1
